<mxfile host="app.diagrams.net" agent="Mozilla/5.0 (Windows NT 10.0; Win64; x64) AppleWebKit/537.36 (KHTML, like Gecko) Chrome/132.0.0.0 Safari/537.36" version="26.0.14">
  <diagram name="PÃ¡gina-1" id="X9920vYMc71vZ0TkeZwN">
    <mxGraphModel dx="446" dy="223" grid="1" gridSize="10" guides="1" tooltips="1" connect="1" arrows="1" fold="1" page="1" pageScale="1" pageWidth="850" pageHeight="1100" math="0" shadow="0">
      <root>
        <mxCell id="0" />
        <mxCell id="1" parent="0" />
        <mxCell id="jLUQCRqKbkbws3lhuzwO-13" value="" style="edgeStyle=orthogonalEdgeStyle;rounded=0;orthogonalLoop=1;jettySize=auto;html=1;" parent="1" source="jLUQCRqKbkbws3lhuzwO-1" target="jLUQCRqKbkbws3lhuzwO-12" edge="1">
          <mxGeometry relative="1" as="geometry" />
        </mxCell>
        <mxCell id="jLUQCRqKbkbws3lhuzwO-1" value="Inicio" style="ellipse;whiteSpace=wrap;html=1;" parent="1" vertex="1">
          <mxGeometry x="365" y="20" width="120" height="80" as="geometry" />
        </mxCell>
        <mxCell id="jLUQCRqKbkbws3lhuzwO-15" value="" style="edgeStyle=orthogonalEdgeStyle;rounded=0;orthogonalLoop=1;jettySize=auto;html=1;" parent="1" source="jLUQCRqKbkbws3lhuzwO-12" target="jLUQCRqKbkbws3lhuzwO-14" edge="1">
          <mxGeometry relative="1" as="geometry" />
        </mxCell>
        <mxCell id="jLUQCRqKbkbws3lhuzwO-12" value="&quot;Ingrese num&quot;" style="shape=document;whiteSpace=wrap;html=1;boundedLbl=1;" parent="1" vertex="1">
          <mxGeometry x="365" y="140" width="120" height="80" as="geometry" />
        </mxCell>
        <mxCell id="jLUQCRqKbkbws3lhuzwO-17" value="" style="edgeStyle=orthogonalEdgeStyle;rounded=0;orthogonalLoop=1;jettySize=auto;html=1;" parent="1" source="jLUQCRqKbkbws3lhuzwO-14" target="jLUQCRqKbkbws3lhuzwO-16" edge="1">
          <mxGeometry relative="1" as="geometry" />
        </mxCell>
        <mxCell id="jLUQCRqKbkbws3lhuzwO-19" value="" style="edgeStyle=orthogonalEdgeStyle;rounded=0;orthogonalLoop=1;jettySize=auto;html=1;" parent="1" source="jLUQCRqKbkbws3lhuzwO-14" target="jLUQCRqKbkbws3lhuzwO-18" edge="1">
          <mxGeometry relative="1" as="geometry" />
        </mxCell>
        <mxCell id="jLUQCRqKbkbws3lhuzwO-21" value="" style="edgeStyle=orthogonalEdgeStyle;rounded=0;orthogonalLoop=1;jettySize=auto;html=1;" parent="1" source="jLUQCRqKbkbws3lhuzwO-14" target="jLUQCRqKbkbws3lhuzwO-20" edge="1">
          <mxGeometry relative="1" as="geometry" />
        </mxCell>
        <mxCell id="jLUQCRqKbkbws3lhuzwO-14" value="&lt;pre&gt;numero &amp;gt; 0&lt;/pre&gt;" style="rhombus;whiteSpace=wrap;html=1;" parent="1" vertex="1">
          <mxGeometry x="385" y="270" width="80" height="80" as="geometry" />
        </mxCell>
        <mxCell id="jLUQCRqKbkbws3lhuzwO-16" value="El numero es positivo" style="whiteSpace=wrap;html=1;" parent="1" vertex="1">
          <mxGeometry x="540" y="380" width="120" height="60" as="geometry" />
        </mxCell>
        <mxCell id="jLUQCRqKbkbws3lhuzwO-18" value="El numero es negativo" style="whiteSpace=wrap;html=1;" parent="1" vertex="1">
          <mxGeometry x="205" y="380" width="120" height="60" as="geometry" />
        </mxCell>
        <mxCell id="jLUQCRqKbkbws3lhuzwO-23" value="" style="edgeStyle=orthogonalEdgeStyle;rounded=0;orthogonalLoop=1;jettySize=auto;html=1;" parent="1" source="jLUQCRqKbkbws3lhuzwO-20" target="jLUQCRqKbkbws3lhuzwO-22" edge="1">
          <mxGeometry relative="1" as="geometry" />
        </mxCell>
        <mxCell id="jLUQCRqKbkbws3lhuzwO-20" value="El numero es 0" style="whiteSpace=wrap;html=1;" parent="1" vertex="1">
          <mxGeometry x="365" y="380" width="120" height="60" as="geometry" />
        </mxCell>
        <mxCell id="jLUQCRqKbkbws3lhuzwO-22" value="" style="shape=waypoint;sketch=0;size=6;pointerEvents=1;points=[];fillColor=default;resizable=0;rotatable=0;perimeter=centerPerimeter;snapToPoint=1;" parent="1" vertex="1">
          <mxGeometry x="415" y="540" width="20" height="20" as="geometry" />
        </mxCell>
        <mxCell id="jLUQCRqKbkbws3lhuzwO-26" value="" style="endArrow=classic;html=1;rounded=0;" parent="1" target="jLUQCRqKbkbws3lhuzwO-22" edge="1">
          <mxGeometry width="50" height="50" relative="1" as="geometry">
            <mxPoint x="264.71" y="440" as="sourcePoint" />
            <mxPoint x="265" y="570" as="targetPoint" />
            <Array as="points">
              <mxPoint x="265" y="550" />
            </Array>
          </mxGeometry>
        </mxCell>
        <mxCell id="jLUQCRqKbkbws3lhuzwO-27" value="" style="endArrow=classic;html=1;rounded=0;entryX=0.743;entryY=0.507;entryDx=0;entryDy=0;entryPerimeter=0;" parent="1" target="jLUQCRqKbkbws3lhuzwO-22" edge="1">
          <mxGeometry width="50" height="50" relative="1" as="geometry">
            <mxPoint x="599.71" y="440" as="sourcePoint" />
            <mxPoint x="599.71" y="540" as="targetPoint" />
            <Array as="points">
              <mxPoint x="600" y="550" />
            </Array>
          </mxGeometry>
        </mxCell>
        <mxCell id="jLUQCRqKbkbws3lhuzwO-28" value="" style="endArrow=none;html=1;rounded=0;" parent="1" target="jLUQCRqKbkbws3lhuzwO-29" edge="1">
          <mxGeometry width="50" height="50" relative="1" as="geometry">
            <mxPoint x="424" y="550" as="sourcePoint" />
            <mxPoint x="424" y="600" as="targetPoint" />
          </mxGeometry>
        </mxCell>
        <mxCell id="jLUQCRqKbkbws3lhuzwO-29" value="Fin" style="ellipse;whiteSpace=wrap;html=1;" parent="1" vertex="1">
          <mxGeometry x="364" y="610" width="120" height="80" as="geometry" />
        </mxCell>
        <mxCell id="lYQUKz545w9YkLZi3w9J-1" value="No" style="text;html=1;align=center;verticalAlign=middle;whiteSpace=wrap;rounded=0;" vertex="1" parent="1">
          <mxGeometry x="310" y="280" width="60" height="30" as="geometry" />
        </mxCell>
        <mxCell id="lYQUKz545w9YkLZi3w9J-2" value="Si" style="text;html=1;align=center;verticalAlign=middle;whiteSpace=wrap;rounded=0;" vertex="1" parent="1">
          <mxGeometry x="490" y="280" width="60" height="30" as="geometry" />
        </mxCell>
      </root>
    </mxGraphModel>
  </diagram>
</mxfile>
